# xmcd
#
# Track frame offsets: 
#        225
#        15424
#        29717
#        45284
#        66141
#        80153
#        92307
#        114614
#        128788
#        144041
#        156678
#        175257
#
# Disc length: 2725 seconds
#
# Revision: 0
# Processed by: cddbd v1.5.2PL0 Copyright (c) Steve Scherf et al.
# Submitted via: ExactAudioCopyFreeDBPlugin 1.0
#
DISCID=980aa20c
DTITLE=Nephews - The Nephews
DYEAR=2007
DGENRE=Bluegrass
TTITLE0=Bear Creek Blues
TTITLE1=Ooh Hoo, Didn't I Do
TTITLE2=When You Hear Then Cuckoos Hollerin'
TTITLE3=Every Day In The Week Blues
TTITLE4=The Ballad Of The Johnstown Flood
TTITLE5=The Tombigbee River
TTITLE6=Hard Times Come Again No More
TTITLE7=Milwaukee Blues
TTITLE8=How Long Blues
TTITLE9=When It's Lamplighting Time In The Valley
TTITLE10=Where Have All The Flowers Gone?
TTITLE11=Ol' Cell Phone
EXTD=
EXTT0=
EXTT1=
EXTT2=
EXTT3=
EXTT4=
EXTT5=
EXTT6=
EXTT7=
EXTT8=
EXTT9=
EXTT10=
EXTT11=
PLAYORDER=
